<mxfile host="app.diagrams.net" modified="2023-07-12T17:11:25.046Z" agent="Mozilla/5.0 (Windows NT 10.0; Win64; x64) AppleWebKit/537.36 (KHTML, like Gecko) Chrome/114.0.0.0 Safari/537.36 Edg/114.0.1823.79" version="21.6.2" etag="EsiOMmVOUgtv2kiFwo36" type="github">
  <diagram name="PÃ¡gina-1" id="YGJWtJ3cUf168S3beNlN">
    <mxGraphModel>
      <root>
        <mxCell id="0" />
        <mxCell id="1" parent="0" />
      </root>
    </mxGraphModel>
  </diagram>
</mxfile>
